<svg width="123" height="64" viewBox="0 0 123 64" fill="none" xmlns="http://www.w3.org/2000/svg">
<path d="M1.76136 56V32.7273H11.375C13.1174 32.7273 14.6212 33.0682 15.8864 33.75C17.1591 34.4242 18.1402 35.3674 18.8295 36.5795C19.5189 37.7841 19.8636 39.1856 19.8636 40.7841C19.8636 42.3902 19.5114 43.7955 18.8068 45C18.1098 46.197 17.1136 47.125 15.8182 47.7841C14.5227 48.4432 12.9848 48.7727 11.2045 48.7727H5.27273V44.3409H10.1591C11.0076 44.3409 11.7159 44.1932 12.2841 43.8977C12.8598 43.6023 13.2955 43.1894 13.5909 42.6591C13.8864 42.1212 14.0341 41.4962 14.0341 40.7841C14.0341 40.0644 13.8864 39.4432 13.5909 38.9205C13.2955 38.3902 12.8598 37.9811 12.2841 37.6932C11.7083 37.4053 11 37.2614 10.1591 37.2614H7.38636V56H1.76136ZM28.1932 32.7273V56H22.6364V32.7273H28.1932ZM36.6506 56.2955C35.5369 56.2955 34.5483 56.1098 33.6847 55.7386C32.8286 55.3598 32.1506 54.7917 31.6506 54.0341C31.1581 53.2689 30.9119 52.3106 30.9119 51.1591C30.9119 50.1894 31.0824 49.3712 31.4233 48.7045C31.7642 48.0379 32.2339 47.4962 32.8324 47.0795C33.4309 46.6629 34.1203 46.3485 34.9006 46.1364C35.6809 45.9167 36.5142 45.7689 37.4006 45.6932C38.393 45.6023 39.1922 45.5076 39.7983 45.4091C40.4044 45.303 40.8438 45.1553 41.1165 44.9659C41.3968 44.7689 41.5369 44.4924 41.5369 44.1364V44.0795C41.5369 43.4962 41.3362 43.0455 40.9347 42.7273C40.5331 42.4091 39.9915 42.25 39.3097 42.25C38.5748 42.25 37.9839 42.4091 37.5369 42.7273C37.09 43.0455 36.8059 43.4848 36.6847 44.0455L31.5597 43.8636C31.7112 42.803 32.1013 41.8561 32.7301 41.0227C33.3665 40.1818 34.2377 39.5227 35.3438 39.0455C36.4574 38.5606 37.7945 38.3182 39.3551 38.3182C40.4688 38.3182 41.4953 38.4508 42.4347 38.7159C43.3741 38.9735 44.1922 39.3523 44.8892 39.8523C45.5862 40.3447 46.1241 40.9508 46.5028 41.6705C46.8892 42.3902 47.0824 43.2121 47.0824 44.1364V56H41.8551V53.5682H41.7188C41.4081 54.1591 41.0104 54.6591 40.5256 55.0682C40.0483 55.4773 39.4839 55.7841 38.8324 55.9886C38.1884 56.1932 37.4612 56.2955 36.6506 56.2955ZM38.3665 52.6591C38.965 52.6591 39.5028 52.5379 39.9801 52.2955C40.465 52.053 40.8513 51.7197 41.1392 51.2955C41.4271 50.8636 41.571 50.3636 41.571 49.7955V48.1364C41.4119 48.2197 41.2188 48.2955 40.9915 48.3636C40.7718 48.4318 40.5294 48.4962 40.2642 48.5568C39.9991 48.6174 39.7263 48.6705 39.446 48.7159C39.1657 48.7614 38.8968 48.803 38.6392 48.8409C38.1165 48.9242 37.6695 49.053 37.2983 49.2273C36.9347 49.4015 36.6544 49.6288 36.4574 49.9091C36.268 50.1818 36.1733 50.5076 36.1733 50.8864C36.1733 51.4621 36.3778 51.9015 36.7869 52.2045C37.2036 52.5076 37.7301 52.6591 38.3665 52.6591ZM56.0369 46.0455V56H50.4801V38.5455H55.7642V41.75H55.9574C56.3438 40.6818 57.0028 39.8447 57.9347 39.2386C58.8665 38.625 59.9763 38.3182 61.2642 38.3182C62.4915 38.3182 63.5559 38.5947 64.4574 39.1477C65.3665 39.6932 66.071 40.4583 66.571 41.4432C67.0786 42.4205 67.3286 43.5644 67.321 44.875V56H61.7642V45.9659C61.7718 44.9962 61.5256 44.2386 61.0256 43.6932C60.5331 43.1477 59.8475 42.875 58.9688 42.875C58.3854 42.875 57.8703 43.0038 57.4233 43.2614C56.9839 43.5114 56.643 43.8712 56.4006 44.3409C56.1657 44.8106 56.0445 45.3788 56.0369 46.0455ZM76.3182 46.0455V56H70.7614V38.5455H76.0455V41.75H76.2386C76.625 40.6818 77.2841 39.8447 78.2159 39.2386C79.1477 38.625 80.2576 38.3182 81.5455 38.3182C82.7727 38.3182 83.8371 38.5947 84.7386 39.1477C85.6477 39.6932 86.3523 40.4583 86.8523 41.4432C87.3598 42.4205 87.6098 43.5644 87.6023 44.875V56H82.0455V45.9659C82.053 44.9962 81.8068 44.2386 81.3068 43.6932C80.8144 43.1477 80.1288 42.875 79.25 42.875C78.6667 42.875 78.1515 43.0038 77.7045 43.2614C77.2652 43.5114 76.9242 43.8712 76.6818 44.3409C76.447 44.8106 76.3258 45.3788 76.3182 46.0455ZM99.2017 56.3295C97.3759 56.3295 95.8002 55.9697 94.4744 55.25C93.1563 54.5227 92.1411 53.4886 91.429 52.1477C90.7244 50.7992 90.3722 49.197 90.3722 47.3409C90.3722 45.5379 90.7282 43.9621 91.4403 42.6136C92.1525 41.2576 93.1562 40.2045 94.4517 39.4545C95.7472 38.697 97.2737 38.3182 99.0312 38.3182C100.274 38.3182 101.41 38.5114 102.44 38.8977C103.471 39.2841 104.361 39.8561 105.111 40.6136C105.861 41.3712 106.444 42.3068 106.861 43.4205C107.277 44.5265 107.486 45.7955 107.486 47.2273V48.6136H92.3153V45.3864H102.315C102.308 44.7955 102.168 44.2689 101.895 43.8068C101.622 43.3447 101.247 42.9848 100.77 42.7273C100.3 42.4621 99.7585 42.3295 99.1449 42.3295C98.5237 42.3295 97.9669 42.4697 97.4744 42.75C96.982 43.0227 96.5919 43.3977 96.304 43.875C96.0161 44.3447 95.8646 44.8788 95.8494 45.4773V48.7614C95.8494 49.4735 95.9896 50.0985 96.2699 50.6364C96.5502 51.1667 96.9479 51.5795 97.4631 51.875C97.9782 52.1705 98.5919 52.3182 99.304 52.3182C99.7964 52.3182 100.243 52.25 100.645 52.1136C101.046 51.9773 101.391 51.7765 101.679 51.5114C101.967 51.2462 102.183 50.9205 102.327 50.5341L107.429 50.6818C107.217 51.8258 106.751 52.822 106.031 53.6705C105.319 54.5114 104.384 55.1667 103.224 55.6364C102.065 56.0985 100.724 56.3295 99.2017 56.3295ZM110.324 56V38.5455H115.722V41.7273H115.903C116.222 40.5758 116.741 39.7197 117.46 39.1591C118.18 38.5909 119.017 38.3068 119.972 38.3068C120.229 38.3068 120.494 38.3258 120.767 38.3636C121.04 38.3939 121.294 38.4432 121.528 38.5114V43.3409C121.263 43.25 120.915 43.178 120.483 43.125C120.059 43.072 119.68 43.0455 119.347 43.0455C118.688 43.0455 118.093 43.1932 117.562 43.4886C117.04 43.7765 116.627 44.1818 116.324 44.7045C116.028 45.2197 115.881 45.8258 115.881 46.5227V56H110.324Z" fill="white"/>
<rect x="0.5" y="0.5" width="15" height="15" rx="3.5" fill="#18181B" stroke="#27272A"/>
<rect x="20.5" y="0.5" width="15" height="15" rx="3.5" fill="#134E4A" stroke="#0F766E"/>
<rect x="40.5" y="0.5" width="15" height="15" rx="3.5" fill="#115E59" stroke="#0D9488"/>
<rect x="60.5" y="0.5" width="15" height="15" rx="3.5" fill="#0F766E" stroke="#14B8A6"/>
<rect x="80.5" y="0.5" width="15" height="15" rx="3.5" fill="#0D9488" stroke="#2DD4BF"/>
<rect x="100.5" y="0.5" width="15" height="15" rx="3.5" fill="#14B8A6" stroke="#5EEAD4"/>
</svg>
